<?xml version="1.0" encoding="UTF-8"?>
<svg version="1.1" xmlns="http://www.w3.org/2000/svg" width="1024" height="1024">
<path d="M0 0 C337.92 0 675.84 0 1024 0 C1024 337.92 1024 675.84 1024 1024 C686.08 1024 348.16 1024 0 1024 C0 686.08 0 348.16 0 0 Z " fill="#FD7B17" transform="translate(0,0)"/>
<path d="M0 0 C337.92 0 675.84 0 1024 0 C1024 337.92 1024 675.84 1024 1024 C686.08 1024 348.16 1024 0 1024 C0 686.08 0 348.16 0 0 Z M241.5 138.1875 C240.18491455 138.64032349 240.18491455 138.64032349 238.84326172 139.10229492 C219.61664715 145.89727802 203.47424727 155.75465921 188 169 C187.34515625 169.53238281 186.6903125 170.06476563 186.015625 170.61328125 C181.486627 174.33066678 177.75497754 178.51445151 174 183 C173.32195312 183.76699219 172.64390625 184.53398437 171.9453125 185.32421875 C146.93493779 214.38431606 136.29615149 250.92173399 136.49206543 288.74472046 C136.48744136 290.73063665 136.48107847 292.71654939 136.47315645 294.70245516 C136.45664635 300.09066749 136.46462495 305.47859201 136.47710133 310.8668046 C136.48622563 316.70471432 136.47214574 322.54257768 136.46118164 328.38047791 C136.44346931 339.79029692 136.44720399 351.2000102 136.4588322 362.60983323 C136.46789595 371.89067095 136.46907785 381.17147921 136.46473694 390.4523201 C136.4644314 391.11415763 136.46412586 391.77599517 136.46381106 392.45788839 C136.46256549 395.14521137 136.46129187 397.83253433 136.459972 400.51985728 C136.44776293 425.67897937 136.45878645 450.8380441 136.48035959 475.99715732 C136.4993346 498.29566166 136.49764409 520.59407459 136.47851562 542.89257812 C136.45704419 568.00565701 136.44863354 593.11868527 136.46096468 618.23177207 C136.46224734 620.91453082 136.46349872 623.59728959 136.46473694 626.28004837 C136.46535404 627.59971859 136.46597114 628.91938881 136.46660694 630.27904903 C136.47004741 639.53793709 136.46425964 648.79679251 136.45481873 658.05567551 C136.44354981 669.35480049 136.44674086 680.65381445 136.4679417 691.95292686 C136.47838723 697.70787231 136.48268608 703.46263329 136.46934509 709.21757698 C136.15479573 741.34104125 136.15479573 741.34104125 141 773 C141.44559139 774.8981952 141.44559139 774.8981952 141.90018463 776.83473778 C142.5875684 779.59912707 143.37335923 782.29045452 144.25 785 C144.54737061 785.94238525 144.84474121 786.88477051 145.15112305 787.85571289 C147.94208555 796.37958096 151.5191611 804.24224867 156 812 C156.57041016 812.99870117 156.57041016 812.99870117 157.15234375 814.01757812 C177.33211436 848.9186568 210.26038316 875.34240185 249.26489258 886.08618164 C253.16350559 887.1275736 257.0656125 888.10328731 261 889 C261.72211528 889.17609478 262.44423057 889.35218955 263.18822813 889.53362054 C272.48961028 891.53776718 281.80254181 891.28141214 291.26574707 891.26069641 C293.22510597 891.26371981 295.18446369 891.26761024 297.14381933 891.27228898 C302.5094544 891.28255385 307.87502253 891.28039096 313.24066305 891.27610838 C319.03503225 891.27363834 324.82938546 891.28265893 330.62374878 891.29014587 C341.9698689 891.30288838 353.31596536 891.30468702 364.66209143 891.30234561 C373.8888813 891.30056134 383.11566399 891.30231445 392.342453 891.30657005 C394.31359674 891.30746284 394.31359674 891.30746284 396.32456157 891.30837366 C398.32501869 891.30928163 400.32547581 891.31018962 402.32593293 891.31110601 C420.91965355 891.31953248 439.51337155 891.3238735 458.10709381 891.31969929 C458.80762997 891.31954291 459.50816613 891.31938654 460.22993065 891.31922542 C463.78019774 891.31841969 467.33046481 891.31757392 470.88073188 891.31671212 C471.58577267 891.31654103 472.29081347 891.31636994 473.01721913 891.31619367 C474.44298365 891.31584701 475.86874817 891.31549848 477.29451268 891.31514808 C499.46361014 891.30979469 521.63266778 891.31771167 543.80175781 891.33618164 C568.73451227 891.35693001 593.66724206 891.36761869 618.60000563 891.36360615 C631.79137997 891.36164745 644.98271961 891.36415964 658.17408752 891.37832069 C669.40772412 891.39025826 680.64130218 891.39161297 691.87493962 891.37953053 C697.60081136 891.37365776 703.32657614 891.37249785 709.05244064 891.38453293 C714.30579801 891.39544594 719.55895982 891.39222439 724.81230825 891.37827124 C726.70126858 891.37563909 728.5902445 891.37794359 730.47918946 891.38600711 C746.26437962 891.44865214 761.9340988 890.12210732 777.0625 885.3125 C777.88137695 885.05758789 778.70025391 884.80267578 779.54394531 884.54003906 C817.56160438 872.29656825 850.34162234 845.44040351 869 810 C880.86190054 786.39349831 886.48161415 763.69624477 886.3742218 737.32659912 C886.37696746 735.27543948 886.38102385 733.22428124 886.38626546 731.17312646 C886.39678669 725.57720673 886.38876615 719.98144827 886.37751496 714.38553572 C886.36863335 708.33508099 886.37712778 702.28464646 886.38337708 696.23419189 C886.39229728 685.08127406 886.38772112 673.92840212 886.37621326 662.7754904 C886.36565547 652.47263962 886.36114052 642.16980713 886.36250877 631.86695099 C886.3625928 631.18216432 886.36267683 630.49737765 886.36276341 629.79183986 C886.36311569 627.01174992 886.36349971 624.23165999 886.36392899 621.45157006 C886.36788881 595.40428707 886.35519999 569.35703639 886.33440243 543.30976265 C886.31602646 520.18664352 886.31022274 497.06355533 886.31567383 473.94042969 C886.31602026 472.45501414 886.31636636 470.96959859 886.31671212 469.48418304 C886.31688311 468.7498077 886.31705411 468.01543235 886.31723029 467.25880321 C886.31808388 463.56176557 886.31890766 459.86472793 886.31969929 456.16769028 C886.31985637 455.43826024 886.32001345 454.70883021 886.32017529 453.95729624 C886.3241677 434.61109001 886.31868677 415.26488676 886.310188 395.91868234 C886.30928099 393.83644529 886.30837534 391.75420824 886.30747276 389.6719712 C886.30687166 388.29078868 886.30626304 386.90960617 886.30564686 385.52842366 C886.30143097 375.9127264 886.30084492 366.297035 886.30275235 356.68133711 C886.30519811 344.29074304 886.30088651 331.90017649 886.28554235 319.50958893 C886.27830587 313.53749209 886.27421504 307.5654385 886.27878571 301.59333801 C886.28287016 296.12346413 886.27767372 290.65367945 886.26515963 285.18381909 C886.26223848 283.2083251 886.26265471 281.23282266 886.26680271 279.25733086 C886.28578054 269.31410309 886.17435631 259.76029367 884 250 C883.85517553 249.31928114 883.71035106 248.63856227 883.56113797 247.93721557 C877.26603259 220.04803734 862.62869342 196.39844611 843 176 C842.32066406 175.24589844 841.64132812 174.49179688 840.94140625 173.71484375 C818.0955463 149.17669787 782.00964809 133.60918412 748.76161638 131.88384353 C742.84622613 131.70096102 736.92954354 131.72644016 731.01199341 131.73930359 C729.02300813 131.7362777 727.03402401 131.73238603 725.04504192 131.72771102 C719.61617373 131.71747884 714.18737194 131.71960059 708.75849843 131.72389162 C702.88925426 131.72636754 697.02002572 131.717334 691.15078735 131.70985413 C679.66685335 131.69712948 668.18294275 131.69531062 656.69900288 131.69765439 C647.36168948 131.69944008 638.02438161 131.69771939 628.68706894 131.69342995 C627.3428432 131.69282753 625.99861747 131.69222633 624.65439173 131.69162634 C622.62847438 131.69071904 620.60255703 131.68981036 618.57663969 131.68889399 C599.75570872 131.68047184 580.93478032 131.67612371 562.11384773 131.68030071 C561.40522804 131.68045709 560.69660835 131.68061346 559.96651533 131.68077458 C556.37541634 131.68158029 552.78431735 131.68242607 549.19321837 131.68328788 C548.12352117 131.68354451 548.12352117 131.68354451 547.03221392 131.68380633 C545.59009166 131.68415299 544.14796941 131.68450152 542.70584715 131.68485192 C520.26758698 131.69020882 497.82936612 131.68227654 475.39111328 131.66381836 C450.148515 131.6430773 424.90594105 131.63237956 399.66333377 131.63639385 C396.96907672 131.63678916 394.27481966 131.63715071 391.58056259 131.63749123 C390.91722776 131.63758196 390.25389292 131.63767269 389.57045703 131.63776617 C379.58141552 131.63892939 369.59240173 131.63226832 359.60336685 131.62167931 C348.23655425 131.60975124 336.8697995 131.60837672 325.50298609 131.62046947 C319.70847573 131.62634786 313.91407112 131.6274863 308.11956787 131.61546707 C302.80602828 131.60457391 297.4926823 131.60775235 292.17915164 131.62172876 C290.26612051 131.62436622 288.35307403 131.62203934 286.44005801 131.61399289 C270.93736433 131.55335805 256.23210497 133.02183304 241.5 138.1875 Z " fill="#FDFDFD" transform="translate(0,0)"/>
<path d="M0 0 C1.08788818 0.01651611 2.17577637 0.03303223 3.29663086 0.05004883 C6.90797057 0.1239258 10.51535798 0.2422891 14.125 0.375 C15.99744385 0.44098389 15.99744385 0.44098389 17.90771484 0.50830078 C47.1666819 1.66116265 75.47836413 6.48148752 104.06933594 12.71679688 C106.6802094 13.2791902 109.2935069 13.81331226 111.9140625 14.328125 C184.46272455 28.88251292 257.17578182 65.10115764 315.125 110.375 C316.33045918 111.30503754 317.53618979 112.23472339 318.7421875 113.1640625 C330.01793466 121.89560138 340.8500687 131.07530092 351.3046875 140.7734375 C353.81978868 143.09346158 356.37044913 145.36294528 358.9375 147.625 C367.90387093 155.67732341 376.68430699 164.22032387 384.46484375 173.43359375 C386.58202462 175.90944997 388.79281829 178.29161268 391 180.6875 C395.91670094 186.09144158 400.58947536 191.64904461 405.125 197.375 C405.91463135 198.37176758 405.91463135 198.37176758 406.72021484 199.38867188 C414.46265218 209.19298958 422.04441339 219.0804144 429.125 229.375 C429.58583984 230.0443457 430.04667969 230.71369141 430.52148438 231.40332031 C438.53917338 243.10871807 445.9954044 255.11010128 453.125 267.375 C453.54458984 268.09558594 453.96417969 268.81617188 454.39648438 269.55859375 C477.546126 309.59517201 495.55381656 352.71385643 507.32958984 397.43847656 C508.20438359 400.66807115 509.15155271 403.8726373 510.09765625 407.08203125 C512.31528601 414.81602164 514.02386095 422.62160799 515.625 430.5 C515.84894943 431.59335663 515.84894943 431.59335663 516.0774231 432.70880127 C518.1787597 443.01763071 520.04281244 453.33758848 521.5625 463.75 C521.72621094 464.85230957 521.88992188 465.95461914 522.05859375 467.09033203 C524.64063352 485.8764004 524.64063352 485.8764004 521.56616211 490.94482422 C518.94510214 494.10994661 517.06267518 496.06244161 513.125 497.375 C510.22609881 497.49733509 507.35011017 497.56357364 504.45019531 497.58374023 C503.56367279 497.59352402 502.67715027 497.6033078 501.76376343 497.61338806 C498.82689921 497.64332726 495.89008047 497.66472341 492.953125 497.68359375 C491.94961754 497.69016558 490.94611008 497.6967374 489.9121933 497.70350838 C484.6003307 497.73609554 479.28848812 497.76054799 473.9765625 497.7800293 C469.58238532 497.79784287 465.1888498 497.8326652 460.79492188 497.88256836 C455.48754791 497.94277449 450.18076896 497.97350559 444.87306976 497.98320198 C442.85245593 497.99175691 440.83185801 498.01057592 438.81143951 498.0399456 C435.97938401 498.07889687 433.14964301 498.0798902 430.31738281 498.07202148 C429.48699493 498.09202209 428.65660706 498.11202271 427.80105591 498.13262939 C422.31938915 498.06445475 419.50549793 496.72997133 415.52839279 492.95596409 C412.79363784 489.87518057 411.85482062 487.71602759 411.484375 483.703125 C411.33814697 482.26634399 411.33814697 482.26634399 411.18896484 480.80053711 C411.08535645 479.75260986 410.98174805 478.70468262 410.875 477.625 C402.45375452 402.0048645 371.51633918 327.21060057 324.51171875 267.4140625 C322.88295191 265.34011717 321.28218882 263.26174749 319.70703125 261.1484375 C314.11523021 253.67410436 308.08665339 246.7970525 301.67041016 240.02197266 C300.0989086 238.34719391 298.55241664 236.65234981 297.01171875 234.94921875 C291.82272163 229.22526503 286.63931789 223.80440861 280.671875 218.86328125 C280.16140625 218.37214844 279.6509375 217.88101563 279.125 217.375 C279.125 216.715 279.125 216.055 279.125 215.375 C278.52945312 215.10945312 277.93390625 214.84390625 277.3203125 214.5703125 C275.06170616 213.34053752 273.73755644 212.12725947 272 210.25 C268.5687561 206.72465025 264.90607097 203.69032931 261.03515625 200.66015625 C258.92008821 198.99933101 256.82722937 197.32330948 254.74609375 195.62109375 C208.61760086 158.00010892 150.17084417 125.67360723 91.37255859 113.85693359 C88.69682684 113.28318881 86.04858355 112.62389813 83.39453125 111.95703125 C55.48622978 104.95429082 26.70662834 100.01079013 -2.13671875 99.92895508 C-7.87945501 99.82690403 -11.44869409 99.40189073 -15.875 95.375 C-20.05247702 90.6944331 -21.61286657 86.85936866 -21.50610352 80.51538086 C-21.51325882 79.76321793 -21.52041412 79.01105499 -21.52778625 78.23609924 C-21.54458287 75.7700474 -21.5253279 73.3058368 -21.50390625 70.83984375 C-21.5047357 69.11544139 -21.50719797 67.39103912 -21.51121521 65.66664124 C-21.51406689 62.06129011 -21.49943267 58.4565624 -21.47192383 54.85131836 C-21.43781608 50.23883084 -21.44387356 45.62745555 -21.4625864 41.01491451 C-21.47317272 37.45714608 -21.46420426 33.89963487 -21.44920158 30.34189034 C-21.444033 28.64150316 -21.44448547 26.94108899 -21.45074654 25.24070549 C-21.45621976 22.86162745 -21.43575973 20.4841231 -21.40844727 18.10522461 C-21.41497314 17.40843597 -21.42149902 16.71164734 -21.42822266 15.9937439 C-21.33152905 11.02066205 -19.95088269 8.22665422 -16.875 4.375 C-11.61489877 -0.43743304 -6.75905304 -0.17369275 0 0 Z " fill="#FCF8F6" transform="translate(286.875,224.625)"/>
<path d="M0 0 C0.77674072 0.01724121 1.55348145 0.03448242 2.35375977 0.05224609 C4.98797951 0.12861515 7.61776618 0.24776211 10.25 0.375 C11.1786084 0.41367187 12.1072168 0.45234375 13.06396484 0.4921875 C38.24065657 1.63869012 63.98509073 5.61560989 88.17578125 12.77490234 C90.35823794 13.4063146 92.55008329 13.9833499 94.75 14.55078125 C104.79861525 17.16879481 114.39091384 20.49779988 123.9921875 24.44677734 C126.20885727 25.35808557 128.43204811 26.25179419 130.65625 27.14453125 C152.05411812 35.83916108 172.79317161 45.90773046 192.25 58.375 C192.92417969 58.80377441 193.59835937 59.23254883 194.29296875 59.67431641 C209.11197319 69.15064085 222.99983028 79.81902748 236.25 91.375 C236.86383545 91.90633545 237.4776709 92.4376709 238.11010742 92.98510742 C250.15665273 103.45158463 261.73820828 114.35699379 272.25 126.375 C273.18612481 127.42454438 274.12232497 128.47402155 275.05859375 129.5234375 C293.13296191 149.99178176 307.94128164 172.60039859 321.25 196.375 C321.64429199 197.07560547 322.03858398 197.77621094 322.44482422 198.49804688 C333.08750579 217.54141229 341.20942475 237.7577506 348.25 258.375 C348.56066406 259.2810498 348.87132812 260.18709961 349.19140625 261.12060547 C353.79891808 274.69493294 357.38068272 288.33460581 360.25 302.375 C360.44754883 303.3144043 360.64509766 304.25380859 360.84863281 305.22167969 C367.03379146 334.91246581 367.03379146 334.91246581 362.59375 343.625 C359.05657078 347.77529028 355.84577698 349.21356311 350.41784668 349.76268005 C348.96034161 349.7833635 347.50254709 349.78785907 346.04492188 349.77905273 C344.84374474 349.78934761 344.84374474 349.78934761 343.61830139 349.79985046 C340.98493461 349.81807456 338.352166 349.81428779 335.71875 349.80859375 C333.88081672 349.81315724 332.04288515 349.81846331 330.20495605 349.82447815 C326.35840916 349.8334003 322.51207 349.83099584 318.66552734 349.82104492 C313.74257594 349.80954864 308.82034112 349.82978128 303.89748383 349.85896206 C300.10385607 349.87732879 296.31039996 349.87703079 292.51673889 349.87132454 C290.70189915 349.87117142 288.8870477 349.87720769 287.07225037 349.88961601 C284.53273836 349.9045357 281.99454943 349.89384308 279.45507812 349.87670898 C278.70996475 349.88637695 277.96485138 349.89604492 277.19715881 349.90600586 C271.19816488 349.82148007 267.6256333 347.77668191 263.46875 343.57421875 C261.7740737 340.51619709 261.33033402 337.63150609 260.75 334.1875 C260.6274585 333.4869751 260.50491699 332.7864502 260.37866211 332.06469727 C259.99076964 329.83660529 259.61834144 327.60640178 259.25 325.375 C253.02671774 287.79822905 239.90521818 249.40279881 217.25 218.375 C216.57517578 217.44977539 216.57517578 217.44977539 215.88671875 216.50585938 C203.51484559 199.61286634 190.4577998 182.78327075 174.25 169.375 C172.78433594 168.07755859 172.78433594 168.07755859 171.2890625 166.75390625 C155.89028963 153.13722077 139.33169599 142.11663233 121.25 132.375 C120.56260742 132.00036621 119.87521484 131.62573242 119.16699219 131.23974609 C102.89451718 122.44303269 85.13996474 115.10105824 67.25 110.375 C66.57888184 110.18631348 65.90776367 109.99762695 65.21630859 109.80322266 C48.05946214 104.98851471 30.39186701 101.82682895 12.58203125 100.9296875 C11.32455078 100.86418701 10.06707031 100.79868652 8.77148438 100.73120117 C6.36125801 100.62157331 3.9494153 100.54191872 1.53710938 100.49731445 C-5.31955574 100.20525269 -9.25795676 99.16188426 -14.25512695 94.3527832 C-17.70931914 89.78273406 -18.00797392 85.56950873 -18.04052734 79.94189453 C-18.05060318 78.84575836 -18.05060318 78.84575836 -18.06088257 77.72747803 C-18.07982119 75.32085296 -18.08378459 72.91450737 -18.0859375 70.5078125 C-18.09236817 68.82778816 -18.09909673 67.14776493 -18.10610962 65.46774292 C-18.11807192 61.94900924 -18.12179151 58.43037367 -18.12060547 54.91162109 C-18.12040231 50.41360929 -18.14770596 45.91622949 -18.18214989 41.41836739 C-18.20444059 37.94897601 -18.20844235 34.47973625 -18.20738602 31.01028061 C-18.20973865 29.35255632 -18.21854311 27.69482764 -18.23405075 26.03717422 C-18.2537562 23.71330356 -18.24785614 21.39078934 -18.23583984 19.06689453 C-18.23868988 17.747388 -18.24153992 16.42788147 -18.24447632 15.06838989 C-17.4891148 9.42637126 -15.32759144 5.75205015 -10.984375 1.9609375 C-7.1828423 0.09690093 -4.13551432 -0.1531846 0 0 Z " fill="#FCF8F6" transform="translate(283.75,372.625)"/>
<path d="M0 0 C0.99 0.18304687 1.98 0.36609375 3 0.5546875 C21.20572481 4.47666545 37.79697704 15.17829178 51 28 C51.91652344 28.82371094 51.91652344 28.82371094 52.8515625 29.6640625 C70.39509 45.9258711 81.26675493 72.01552231 82.21875 95.625 C82.93007353 123.16947177 74.39046545 149.5208221 55.23046875 169.703125 C54.49441406 170.46109375 53.75835937 171.2190625 53 172 C52.31550781 172.75796875 51.63101563 173.5159375 50.92578125 174.296875 C35.52308892 190.80992777 10.50342221 201.69341459 -11.84619141 203.19067383 C-14.71309672 203.26640433 -17.5697677 203.27821906 -20.4375 203.25 C-21.4495752 203.24250732 -22.46165039 203.23501465 -23.50439453 203.22729492 C-30.51894912 203.12615063 -37.17805139 202.73500957 -44 201 C-44.62503418 200.84934082 -45.25006836 200.69868164 -45.89404297 200.54345703 C-58.07149738 197.55436719 -68.90315557 192.92241924 -79.23828125 185.75390625 C-81.87681199 183.73194866 -81.87681199 183.73194866 -85 184 C-86.9112797 185.65310569 -86.9112797 185.65310569 -88.6875 187.8125 C-89.62142578 188.87404297 -89.62142578 188.87404297 -90.57421875 189.95703125 C-92.28615211 191.9948041 -92.28615211 191.9948041 -92 195 C-91.505 195.433125 -91.01 195.86625 -90.5 196.3125 C-89 198 -89 198 -88.375 200.6875 C-89.99853006 209.29220931 -100.62679696 216.69608502 -106.68359375 222.64453125 C-107.39644531 223.34964844 -108.10929687 224.05476562 -108.84375 224.78125 C-109.47474609 225.40064453 -110.10574219 226.02003906 -110.75585938 226.65820312 C-112.67259809 228.65835083 -114.48697384 230.6982551 -116.29760742 232.79321289 C-119.84145029 236.86925507 -123.57033865 240.71532866 -127.39453125 244.52734375 C-128.06796066 245.20172989 -128.74139008 245.87611603 -129.43522644 246.57093811 C-130.8432044 247.97959068 -132.25242224 249.38700499 -133.6628418 250.79321289 C-135.82783604 252.95279773 -137.98737256 255.11773882 -140.14648438 257.28320312 C-141.52051237 258.6565712 -142.89485006 260.02962951 -144.26953125 261.40234375 C-144.91533646 262.05017319 -145.56114166 262.69800262 -146.22651672 263.36546326 C-147.12336433 264.25758263 -147.12336433 264.25758263 -148.03833008 265.16772461 C-148.56348709 265.69208603 -149.0886441 266.21644745 -149.62971497 266.75669861 C-152.37716249 269.24954152 -155.08622956 269.46930475 -158.73828125 269.390625 C-169.17247727 267.58851861 -180.02905166 255.07916867 -185.99414062 246.73657227 C-190.58693772 240.05315047 -192.9985337 235.16192764 -192 227 C-190.03346678 223.55856687 -187.29047358 221.36725994 -184.328125 218.8046875 C-180.21168329 215.21213957 -176.22001658 211.50285244 -172.25 207.75 C-170.84155004 206.42535134 -169.43269281 205.10113559 -168.0234375 203.77734375 C-167.33862305 203.13394043 -166.65380859 202.49053711 -165.94824219 201.82763672 C-158.52809009 194.86682737 -151.00450925 188.06850491 -143.23022461 181.50610352 C-140.28460486 179.0081165 -137.40850491 176.47109593 -134.62109375 173.796875 C-134.08419922 173.28511719 -133.54730469 172.77335938 -132.99414062 172.24609375 C-131.52663649 170.83566945 -130.07337409 169.41046998 -128.62109375 167.984375 C-126 166 -126 166 -123.3046875 165.6171875 C-120.46950596 166.08811596 -119.05839462 167.01784222 -117 169 C-117 169.66 -117 170.32 -117 171 C-115.70756532 169.8758824 -114.41607925 168.75067408 -113.125 167.625 C-112.40570313 166.99851562 -111.68640625 166.37203125 -110.9453125 165.7265625 C-109.5923402 164.52573166 -108.2791655 163.2791655 -107 162 C-107.3167531 157.86813173 -108.98356314 155.12719837 -111.1875 151.6875 C-124.39452988 129.46829605 -128.91544251 101.56353805 -122.83691406 76.3972168 C-115.60081091 49.12760211 -98.38467024 26.16546053 -74.06396484 11.86132812 C-64.47882422 6.49881116 -54.60094774 2.79747232 -44 0 C-43.0821875 -0.24621094 -42.164375 -0.49242187 -41.21875 -0.74609375 C-27.96463794 -3.71190586 -13.1994252 -2.55577106 0 0 Z " fill="#FCFCFB" transform="translate(387,527)"/>
<path d="M0 0 C1.47919922 -0.01836914 1.47919922 -0.01836914 2.98828125 -0.03710938 C23.29903017 -0.07724919 41.62836498 8.01147398 56.3984375 21.796875 C60.20831397 25.67003846 63.55260895 29.8000486 66.75 34.1875 C67.45769531 35.15429688 67.45769531 35.15429688 68.1796875 36.140625 C72.1431133 41.99960228 74.47974025 48.52495078 76.75 55.1875 C77.07355469 56.12335937 77.39710938 57.05921875 77.73046875 58.0234375 C83.78604611 78.32241512 78.59254083 99.7288434 69.26171875 118.12109375 C62.36499931 129.91225924 51.75359625 139.77969789 39.75 146.1875 C38.9146875 146.64511719 38.079375 147.10273437 37.21875 147.57421875 C19.13987734 156.6408823 -3.68303162 158.55228733 -22.96484375 152.4453125 C-43.00908842 144.77082167 -59.9868665 130.98256956 -69.13720703 111.27685547 C-77.40255303 92.50637111 -80.3328539 70.45817752 -72.92578125 50.82421875 C-63.56576284 29.86579221 -49.21740835 13.60049257 -27.5859375 4.67578125 C-18.11619693 1.19689761 -10.02871874 0.00645349 0 0 Z " fill="#52BBF4" transform="translate(364.25,549.8125)"/>
<path d="M0 0 C6.73321064 -0.236253 6.73321064 -0.236253 9.68359375 1.4453125 C11.421875 3.15625 11.421875 3.15625 11.984375 6.78125 C11.42920505 15.74561186 5.06942472 22.51037287 -1.21484375 28.38671875 C-6.73936137 33.18428188 -13.29875646 36.51166016 -19.65722656 40.06005859 C-28.49702256 45.10462952 -38.57665544 51.95022112 -44.015625 60.71875 C-44.53125 61.523125 -45.046875 62.3275 -45.578125 63.15625 C-46.568125 63.15625 -47.558125 63.15625 -48.578125 63.15625 C-50.55215378 47.85752692 -50.79858938 35.16658276 -41.203125 22.34375 C-40.01620859 20.92966034 -38.80845624 19.5327329 -37.578125 18.15625 C-37.03285156 17.52976562 -36.48757813 16.90328125 -35.92578125 16.2578125 C-26.47190804 6.06987385 -13.64038748 0.82669015 0 0 Z " fill="#FBFCFD" transform="translate(357.578125,564.84375)"/>
<path d="M0 0 C-2.43260434 2.43260434 -3.33716039 2.32135764 -6.6875 2.5625 C-11.67579065 2.97220111 -16.60845185 3.46190167 -21.5 4.5625 C-24.68881658 5.1205429 -27.76992358 5.06333483 -31 5 C-27.43859901 2.62573267 -24.13307567 2.07753757 -20 1.375 C-19.24340088 1.24311279 -18.48680176 1.11122559 -17.70727539 0.9753418 C-11.77604029 0.00014563 -6.01127515 -0.35054952 0 0 Z " fill="#FDA537" transform="translate(280,132)"/>
<path d="M0 0 C0.33 0.99 0.66 1.98 1 3 C0.57589844 3.4125 0.15179687 3.825 -0.28515625 4.25 C-4.17330504 8.07833112 -7.81923032 12.02056124 -11.32421875 16.203125 C-13.07157236 18.07674426 -14.9105862 19.52511967 -17 21 C-17.66 20.67 -18.32 20.34 -19 20 C-18.3498291 19.35768433 -18.3498291 19.35768433 -17.68652344 18.70239258 C-15.70499954 16.74178536 -13.72747941 14.7771861 -11.75 12.8125 C-11.06808594 12.13896484 -10.38617187 11.46542969 -9.68359375 10.77148438 C-6.22468165 7.32936311 -2.94363181 3.90714016 0 0 Z " fill="#E3D6D4" transform="translate(853,833)"/>
<path d="M0 0 C0.66 0 1.32 0 2 0 C0.60667426 3.36720387 -0.9789286 4.9859524 -4 7 C-2.92598892 4.08482708 -2.22189824 2.22189824 0 0 Z M-6 7 C-5.34 7.33 -4.68 7.66 -4 8 C-7.465 10.97 -7.465 10.97 -11 14 C-9.38262276 10.76524552 -8.52370777 9.29427979 -6 7 Z M-14 15 C-13.34 15.33 -12.68 15.66 -12 16 C-13.65 17.32 -15.3 18.64 -17 20 C-15.125 16.125 -15.125 16.125 -14 15 Z M-21 22 C-20.01 22.495 -20.01 22.495 -19 23 C-19.99 23.495 -19.99 23.495 -21 24 C-21 23.34 -21 22.68 -21 22 Z " fill="#F27218" transform="translate(278,757)"/>
<path d="M0 0 C1.109375 1.67578125 1.109375 1.67578125 2 4 C1.390625 6.54296875 1.390625 6.54296875 0.25 9.1875 C-0.29914062 10.50814453 -0.29914062 10.50814453 -0.859375 11.85546875 C-2 14 -2 14 -4 15 C-3.52229477 13.06213915 -3.04278429 11.12472326 -2.5625 9.1875 C-2.29566406 8.10855469 -2.02882813 7.02960937 -1.75390625 5.91796875 C-1.23922588 3.9259157 -0.65062825 1.95188476 0 0 Z " fill="#EDDCD8" transform="translate(882,774)"/>
<path d="M0 0 C0.73605469 0.25652344 1.47210938 0.51304687 2.23046875 0.77734375 C1.6478125 1.03257812 1.06515625 1.2878125 0.46484375 1.55078125 C-1.98341348 2.89475462 -3.58696373 4.39544671 -5.51953125 6.40234375 C-6.133125 7.03398438 -6.74671875 7.665625 -7.37890625 8.31640625 C-7.8378125 8.79851563 -8.29671875 9.280625 -8.76953125 9.77734375 C-9.42953125 9.44734375 -10.08953125 9.11734375 -10.76953125 8.77734375 C-9.56154448 7.23963354 -8.32730211 5.72251919 -7.08203125 4.21484375 C-6.39753906 3.36792969 -5.71304687 2.52101563 -5.0078125 1.6484375 C-2.76953125 -0.22265625 -2.76953125 -0.22265625 0 0 Z " fill="#F17622" transform="translate(304.76953125,710.22265625)"/>
<path d="M0 0 C-0.99 1.485 -0.99 1.485 -2 3 C-4.6015625 3.29296875 -4.6015625 3.29296875 -7.625 3.1875 C-9.12933594 3.14689453 -9.12933594 3.14689453 -10.6640625 3.10546875 C-11.43492187 3.07066406 -12.20578125 3.03585938 -13 3 C-8.54370064 0.02913376 -5.32064558 -0.12092376 0 0 Z " fill="#FDAB43" transform="translate(262,134)"/>
</svg>
